<?xml version="1.0" standalone="no"?>
<!DOCTYPE svg PUBLIC "-//W3C//DTD SVG 20010904//EN"
 "http://www.w3.org/TR/2001/REC-SVG-20010904/DTD/svg10.dtd">
<svg version="1.0" xmlns="http://www.w3.org/2000/svg"
 width="302.000000pt" height="310.000000pt" viewBox="0 0 302.000000 310.000000"
 preserveAspectRatio="xMidYMid meet">
<metadata>
Created by potrace 1.16, written by Peter Selinger 2001-2019
</metadata>
<g transform="translate(0.000000,310.000000) scale(0.100000,-0.100000)"
fill="#000000" stroke="none">
<path d="M0 1550 l0 -1550 1510 0 1510 0 0 1550 0 1550 -1510 0 -1510 0 0
-1550z m1580 1360 l0 -40 40 0 40 0 0 -390 0 -390 40 0 c39 0 40 -1 40 -35 l0
-35 75 0 75 0 0 -40 0 -40 40 0 40 0 0 -80 0 -80 40 0 c39 0 40 -1 40 -35 l0
-35 385 0 385 0 0 -40 0 -40 40 0 40 0 0 -80 0 -80 -40 0 c-39 0 -40 -1 -40
-35 l0 -35 -385 0 -385 0 0 -40 0 -40 -40 0 -40 0 0 -80 0 -80 -40 0 -40 0 0
-40 0 -40 -75 0 -75 0 0 -35 c0 -34 -1 -35 -40 -35 l-40 0 0 -390 0 -390 -40
0 -40 0 0 -40 0 -40 -75 0 -75 0 0 40 0 40 -40 0 -40 0 0 390 0 390 -40 0
c-39 0 -40 1 -40 35 l0 35 -80 0 -80 0 0 40 c0 39 -1 40 -35 40 l-35 0 0 80 0
80 -40 0 -40 0 0 40 0 40 -390 0 -390 0 0 35 c0 33 -2 35 -35 35 l-35 0 0 80
0 80 35 0 c34 0 35 1 35 40 l0 40 390 0 390 0 0 35 c0 34 1 35 40 35 l40 0 0
80 0 80 35 0 c34 0 35 1 35 40 l0 40 80 0 80 0 0 35 c0 34 1 35 40 35 l40 0 0
390 0 390 40 0 40 0 0 40 0 40 75 0 75 0 0 -40z"/>
</g>
</svg>
